<?xml version="1.0" encoding="UTF-8" standalone="no"?>
<!-- Created with Inkscape (http://www.inkscape.org/) -->

<svg
   xmlns:dc="http://purl.org/dc/elements/1.1/"
   xmlns:cc="http://creativecommons.org/ns#"
   xmlns:rdf="http://www.w3.org/1999/02/22-rdf-syntax-ns#"
   xmlns:svg="http://www.w3.org/2000/svg"
   xmlns="http://www.w3.org/2000/svg"
   xmlns:sodipodi="http://sodipodi.sourceforge.net/DTD/sodipodi-0.dtd"
   xmlns:inkscape="http://www.inkscape.org/namespaces/inkscape"
   width="300mm"
   height="200mm"
   viewBox="0 0 744.09449 0"
   id="svg2"
   version="1.1"
   inkscape:version="0.91 r13725"
   sodipodi:docname="robotsupc-logo.svg"
   inkscape:export-filename="/Users/twinone/logo/png/robotsupc-logo-padded.png"
   inkscape:export-xdpi="90"
   inkscape:export-ydpi="90">
  <sodipodi:namedview
     id="base"
     pagecolor="#ffffff"
     bordercolor="#666666"
     borderopacity="1.0"
     inkscape:pageopacity="0.0"
     inkscape:pageshadow="2"
     inkscape:zoom="0.39981482"
     inkscape:cx="593.90085"
     inkscape:cy="246.80556"
     inkscape:document-units="px"
     inkscape:current-layer="g5478"
     showgrid="false"
     inkscape:window-width="1280"
     inkscape:window-height="751"
     inkscape:window-x="0"
     inkscape:window-y="1"
     inkscape:window-maximized="1"
     fit-margin-top="0"
     fit-margin-left="0"
     fit-margin-right="0"
     fit-margin-bottom="0" />
  <defs
     id="defs4" />
  <metadata
     id="metadata7">
    <rdf:RDF>
      <cc:Work
         rdf:about="">
        <dc:format>image/svg+xml</dc:format>
        <dc:type
           rdf:resource="http://purl.org/dc/dcmitype/StillImage" />
        <dc:title />
      </cc:Work>
    </rdf:RDF>
  </metadata>
  <g
     id="layer1"
     inkscape:groupmode="layer"
     inkscape:label="Layer 1"
     transform="translate(-85.452996,-327.11625)" />
  <g
     id="g5478"
     transform="translate(-42.36584,181.15147)">
    <g
       id="g5515"
       transform="matrix(0.66935728,0,0,0.66935728,184.10671,57.260462)">
      <g
         transform="translate(60,-198.868)"
         id="g5473">
        <path
           inkscape:connector-curvature="0"
           id="path4453"
           d="m 217.95617,423.28647 c 0.40049,0.005 0.82377,0.0167 1.27247,0.0365 14.35848,0.63815 2.61653,7.2211 15.63783,13.30542 13.02129,6.08434 10.53728,-7.14689 20.23901,3.45733 9.70174,10.60422 -3.25637,6.95672 1.64881,20.46644 4.90517,13.50972 12.5046,2.3975 11.86644,16.75598 -0.63815,14.35848 -7.22109,2.61653 -13.30542,15.63782 -6.08433,13.0213 7.14554,10.53729 -3.45868,20.23902 -10.60422,9.70175 -6.95673,-3.25502 -20.46644,1.65015 -13.50972,4.90518 -2.39749,12.50325 -16.75597,11.8651 -14.35848,-0.63815 -2.61654,-7.2211 -15.63784,-13.30542 -13.0213,-6.08433 -10.53728,7.14554 -20.23901,-3.45868 -9.70174,-10.60422 3.25637,-6.95537 -1.64881,-20.46508 -4.90517,-13.50973 -12.5046,-2.39886 -11.86644,-16.75733 0.63815,-14.35848 7.22109,-2.61654 13.30542,-15.63783 6.08434,-13.0213 -7.14555,-10.53729 3.45868,-20.23903 10.60422,-9.70173 6.95673,3.25639 20.46645,-1.64879 13.08753,-4.75189 3.06847,-12.03147 15.4835,-11.90165 z m -1.02475,33.31431 a 18.410186,18.410186 0 0 0 -18.41018,18.4102 18.410186,18.410186 0 0 0 18.41018,18.41018 18.410186,18.410186 0 0 0 18.41019,-18.41018 18.410186,18.410186 0 0 0 -18.41019,-18.4102 z"
           style="fill:#008fcc;fill-opacity:1;fill-rule:evenodd;stroke:#000000;stroke-width:1.54076898;stroke-linecap:butt;stroke-linejoin:miter;stroke-miterlimit:4;stroke-dasharray:none;stroke-opacity:1" />
        <path
           inkscape:connector-curvature="0"
           id="path4453-3"
           d="m 112.0291,339.97625 c 0.5237,0.005 1.07721,0.0217 1.66397,0.0478 18.7762,0.83449 3.42157,9.44283 20.44918,17.39914 17.02761,7.95632 13.77932,-9.34581 26.46603,4.52105 12.6867,13.86686 -4.25828,9.09712 2.15609,26.76343 6.41436,17.6663 16.35193,3.13514 15.51744,21.91134 -0.8345,18.77621 -9.44283,3.42158 -17.39916,20.44918 -7.95631,17.02761 9.34405,13.77933 -4.52281,26.46603 -13.86686,12.68671 -9.09713,-4.25651 -26.76343,2.15786 -17.6663,6.41437 -3.13514,16.35016 -21.91135,15.51567 -18.776198,-0.83449 -3.42157,-9.44283 -20.449173,-17.39915 -17.027608,-7.95632 -13.779323,9.34404 -26.466032,-4.52282 -12.6867,-13.86686 4.258277,-9.09535 -2.156089,-26.76165 -6.414366,-17.66631 -16.351935,-3.13692 -15.517437,-21.91312 0.834499,-18.77621 9.442829,-3.42157 17.399151,-20.44917 7.956313,-17.02761 -9.344047,-13.77934 4.522818,-26.46604 13.866857,-12.6867 9.097126,4.25828 26.763428,-2.15608 17.114224,-6.21392 4.01257,-15.73324 20.247374,-15.56347 z m -1.34004,43.56426 a 24.074514,24.074514 0 0 0 -24.074511,24.07451 24.074514,24.074514 0 0 0 24.074511,24.07451 24.074514,24.074514 0 0 0 24.07452,-24.07451 24.074514,24.074514 0 0 0 -24.07452,-24.07451 z"
           style="fill:#008fcc;fill-opacity:1;fill-rule:evenodd;stroke:#000000;stroke-width:1.35950196;stroke-linecap:butt;stroke-linejoin:miter;stroke-miterlimit:4;stroke-dasharray:none;stroke-opacity:1" />
        <path
           inkscape:connector-curvature="0"
           id="path4453-2"
           d="m 260.33493,217.27779 c 0.7971,0.008 1.63956,0.0331 2.53263,0.0727 28.57816,1.27013 5.20777,14.37238 31.12451,26.48223 25.91673,12.10985 20.9727,-14.22471 40.28241,6.88123 19.30969,21.10595 -6.48127,13.84621 3.28166,40.73505 9.76293,26.88886 24.88833,4.77182 23.61819,33.35 -1.27014,28.57818 -14.37238,5.20778 -26.48224,31.12451 -12.10984,25.91673 14.22203,20.97272 -6.88392,40.28241 -21.10593,19.30971 -13.8462,-6.47858 -40.73506,3.28434 -26.88885,9.76296 -4.77181,24.88565 -33.34999,23.61551 -28.57817,-1.27012 -5.20777,-14.37238 -31.12452,-26.48222 -25.91673,-12.10986 -20.9727,14.22202 -40.28241,-6.88394 -19.30969,-21.10593 6.48127,-13.8435 -3.28166,-40.73236 -9.76293,-26.88885 -24.88833,-4.77451 -23.61819,-33.35269 1.27014,-28.57817 14.37238,-5.20778 26.48224,-31.1245 12.10984,-25.91674 -14.22203,-20.97272 6.88392,-40.28242 21.10593,-19.3097 13.84621,6.48129 40.73507,-3.28165 26.04858,-9.45784 6.1073,-23.94665 30.81736,-23.68825 z m -2.03959,66.30663 a 36.642422,36.642422 0 0 0 -36.64244,36.64242 36.642422,36.642422 0 0 0 36.64244,36.64242 36.642422,36.642422 0 0 0 36.64242,-36.64242 36.642422,36.642422 0 0 0 -36.64242,-36.64242 z"
           style="fill:#008fcc;fill-opacity:1;fill-rule:evenodd;stroke:#000000;stroke-width:1.37947941px;stroke-linecap:butt;stroke-linejoin:miter;stroke-opacity:1" />
      </g>
      <text
         xml:space="preserve"
         style="font-style:normal;font-variant:normal;font-weight:bold;font-stretch:normal;font-size:36.25338745px;line-height:80.00000119%;font-family:Roboto;-inkscape-font-specification:'Roboto Bold';letter-spacing:0px;word-spacing:0px;fill:#008fcc;fill-opacity:1;stroke:none;stroke-width:1px;stroke-linecap:butt;stroke-linejoin:miter;stroke-opacity:1"
         x="433.60049"
         y="162.52228"
         id="text5385"
         sodipodi:linespacing="80.000001%"><tspan
           dx="0"
           sodipodi:role="line"
           x="433.60049"
           y="162.52228"
           id="tspan5389"
           style="font-style:italic;font-variant:normal;font-weight:normal;font-stretch:normal;font-size:163.14022827px;line-height:100%;font-family:Roboto;-inkscape-font-specification:'Roboto Italic';letter-spacing:-5px;fill:#000000">RO<tspan
   id="tspan5425"
   style="font-style:italic;font-variant:normal;font-weight:normal;font-stretch:normal;line-height:80.00000119%;font-family:Roboto;-inkscape-font-specification:'Roboto Italic';letter-spacing:-5px;fill:#000000">BOTS</tspan></tspan><tspan
           sodipodi:role="line"
           x="433.60049"
           y="299.83197"
           id="tspan5391"
           style="font-style:normal;font-variant:normal;font-weight:900;font-stretch:normal;font-size:163.14022827px;font-family:Roboto;-inkscape-font-specification:'Roboto Heavy';fill:#000000">UPC</tspan></text>
    </g>
    <flowRoot
       xml:space="preserve"
       id="flowRoot5507"
       style="fill:black;stroke:none;stroke-opacity:1;stroke-width:1px;stroke-linejoin:miter;stroke-linecap:butt;fill-opacity:1;font-family:sans-serif;font-style:normal;font-weight:normal;font-size:40px;line-height:125%;letter-spacing:0px;word-spacing:0px"><flowRegion
         id="flowRegion5509"><rect
           id="rect5511"
           width="1469.4563"
           height="691.63879"
           x="-172.35728"
           y="282.18765" /></flowRegion><flowPara
         id="flowPara5513" /></flowRoot>  </g>
</svg>
